<svg xmlns="http://www.w3.org/2000/svg" version="1.1" xmlns:xlink="http://www.w3.org/1999/xlink" xmlns:svgjs="http://svgjs.com/svgjs" width="1440" height="560" preserveAspectRatio="none" viewBox="0 0 1440 560"><g mask="url(&quot;#SvgjsMask2099&quot;)" fill="none"><rect width="1440" height="560" x="0" y="0" fill="url(#SvgjsLinearGradient2100)"></rect><path d="M1440 0L901.35 0L1440 221.64z" fill="rgba(255, 255, 255, .1)"></path><path d="M901.35 0L1440 221.64L1440 318.21L680.1 0z" fill="rgba(255, 255, 255, .075)"></path><path d="M680.1 0L1440 318.21L1440 321.37L672.13 0z" fill="rgba(255, 255, 255, .05)"></path><path d="M672.13 0L1440 321.37L1440 477.71000000000004L642.15 0z" fill="rgba(255, 255, 255, .025)"></path><path d="M0 560L250.81 560L0 462.44z" fill="rgba(0, 0, 0, .1)"></path><path d="M0 462.44L250.81 560L864.5699999999999 560L0 416.31z" fill="rgba(0, 0, 0, .075)"></path><path d="M0 416.31L864.5699999999999 560L973.2199999999999 560L0 223.23z" fill="rgba(0, 0, 0, .05)"></path><path d="M0 223.23000000000002L973.2199999999999 560L1294.77 560L0 70.92000000000002z" fill="rgba(0, 0, 0, .025)"></path></g><defs><mask id="SvgjsMask2099"><rect width="1440" height="560" fill="#ffffff"></rect></mask><linearGradient x1="15.28%" y1="139.29%" x2="84.72%" y2="-39.29%" gradientUnits="userSpaceOnUse" id="SvgjsLinearGradient2100"><stop stop-color="#0e2a47" offset="0"></stop><stop stop-color="rgba(20, 27, 41, 1)" offset="1"></stop><stop stop-color="rgba(20, 27, 41, 1)" offset="1"></stop></linearGradient></defs></svg>